<?xml version="1.0" encoding="UTF-8"?>
<svg id="Layer_1" data-name="Layer 1" xmlns="http://www.w3.org/2000/svg" viewBox="0 0 194 60">
  <defs>
    <style>
      .cls-1 {
        fill: #211915;
      }

      .cls-1, .cls-2, .cls-3 {
        stroke-width: 0px;
      }

      .cls-2 {
        fill: #be0811;
        fill-rule: evenodd;
      }

      .cls-3 {
        fill: #fff;
      }
    </style>
  </defs>
  <path class="cls-1" d="M30.27,0L0,30l30.27,30,30.27-30L30.27,0Z"/>
  <path class="cls-3" d="M30.27,1.01L1.02,30l29.25,28.99,29.25-28.99L30.27,1.01Z"/>
  <path class="cls-1" d="M30.27,2.89L2.92,30l27.35,27.11,27.35-27.11L30.27,2.89Z"/>
  <path class="cls-2" d="M30.61,29.25l.55-22.48-14.51,28.64,13.27-4.67-.54,22.48,14.51-28.65-13.28,4.68Z"/>
  <path class="cls-1" d="M77.91,26.02c-1.07-1.01-2.65-1.57-4.03-1.57-3.4,0-5.46,2.56-5.46,5.8,0,2.58,1.52,5.26,5.46,5.26,1.25,0,2.33-.27,3.58-1.26v-2.79h-4.06v-2.65h6.8v6.63c-1.56,1.77-3.54,2.83-6.32,2.83-5.96,0-8.39-3.89-8.39-8.02,0-4.43,2.79-8.51,8.39-8.51,2.13,0,4.26.81,5.89,2.4l-1.86,1.89h0Z"/>
  <path class="cls-1" d="M96.57,22.21v9.01c0,4.65-2.88,7.03-6.87,7.03s-7.05-2.29-7.05-7.03v-9.01h2.97v9.01c0,2.83,1.63,4.34,4.1,4.34s3.88-1.64,3.88-4.34v-9.01h2.97Z"/>
  <path class="cls-1" d="M99.52,37.91v-15.73h2.97v15.73h-2.97Z"/>
  <path class="cls-1" d="M110.13,24.88h-5.03v-2.7h13.06v2.7h-5.03v13.03h-2.99v-13.03Z"/>
  <path class="cls-1" d="M124.75,24.88h-5.03v-2.7h13.06v2.7h-5.03v13.03h-2.99v-13.03Z"/>
  <path class="cls-1" d="M146.53,34.94h-8.3l-1.36,2.96h-3.24l7.12-15.73h3.26l7.12,15.73h-3.26l-1.34-2.96h0ZM142.38,25.48l-2.95,6.69h5.89l-2.95-6.69Z"/>
  <path class="cls-1" d="M170.9,37.91h-3.56l-4.62-5.26h-2.88v5.26h-2.99v-15.75c2.52,0,5.03.02,7.55.02,3.74.02,5.71,2.49,5.71,5.21,0,2.16-1,4.34-4.01,4.94l4.8,5.37v.2h0ZM159.84,24.95v5.03h4.56c1.9,0,2.72-1.26,2.72-2.52s-.84-2.52-2.72-2.52h-4.56Z"/>
  <path class="cls-1" d="M172.15,37.91v-15.73h2.97v15.73h-2.97Z"/>
  <path class="cls-1" d="M194,30.13c-.04,4.07-2.56,8.13-8.14,8.13s-8.16-3.98-8.16-8.11,2.67-8.29,8.16-8.29,8.18,4.16,8.14,8.27h0ZM180.65,30.2c.07,2.58,1.47,5.35,5.21,5.35s5.15-2.79,5.19-5.37c.04-2.65-1.45-5.62-5.19-5.62s-5.28,2.99-5.21,5.64Z"/>
</svg>